<svg width="64" height="57" viewBox="0 0 64 57" fill="none" xmlns="http://www.w3.org/2000/svg">
<path d="M50.2578 27.416C50.3085 27.8722 50.3467 28.4809 50.3721 29.2412C50.3974 29.9762 50.4101 30.4456 50.4102 30.6484C50.4102 35.7185 49.4334 40.2436 47.4814 44.2236C45.5295 48.2036 42.6904 51.3347 38.9639 53.6162C35.2374 55.8723 30.7249 57 25.4268 57C21.7511 57 18.3671 56.3661 15.2744 55.0986C12.1818 53.8058 9.49435 51.9305 7.21289 49.4717C4.93136 47.0127 3.15619 44.0208 1.88867 40.4971C1.1455 38.431 0.621868 36.199 0.314453 33.8018H8.79492C9.10709 35.849 9.61878 37.7389 10.3311 39.4707C11.6239 42.5886 13.5628 45.0224 16.1484 46.7715C18.7594 48.5206 22.0044 49.4082 25.8828 49.4336C29.0009 49.4843 31.6754 48.9131 33.9062 47.7217C36.1624 46.5049 37.9503 44.7307 39.2686 42.3984C40.5867 40.0662 41.4352 37.2015 41.8154 33.8047H31.1689V27.416H50.2578Z" fill="white"/>
<path d="M63.9736 55.8594H55.5703V47.4561H63.9736V55.8594Z" fill="white"/>
<path d="M25.4268 0C31.8657 0 36.9992 1.49596 40.8271 4.4873C44.6804 7.47864 47.304 11.611 48.6982 16.8838L40.6367 18.3281C39.5213 15.0581 37.7216 12.447 35.2373 10.4951C32.753 8.54318 29.6346 7.55465 25.8828 7.5293C22.0044 7.50401 18.7722 8.36612 16.1865 10.1152C13.6263 11.8644 11.7 14.3235 10.4072 17.4922C9.22524 20.3661 8.57368 23.6743 8.45117 27.417H0C0.122615 21.9633 1.19547 17.2476 3.21973 13.2705C5.3745 9.01175 8.3665 5.74145 12.1943 3.45996C16.0221 1.15326 20.433 2.14592e-05 25.4268 0Z" fill="white"/>
</svg>
